<?xml version="1.0" encoding="utf-8"?>
<svg xmlns="http://www.w3.org/2000/svg" viewBox="-128.856 -47.795 1160.8291 274.171" width="1160.8291pt" height="274.171pt" xmlns:bx="https://boxy-svg.com">
  <defs>
    <style bx:fonts="Galindo">@import url(https://fonts.googleapis.com/css2?family=Galindo%3Aital%2Cwght%400%2C400&amp;display=swap);</style>
  </defs>
  <g transform="matrix(1, 0, 0, 1, 5.684341886080802e-14, 5.684341886080802e-14)">
    <ellipse style="paint-order: fill; stroke-width: 1; fill: rgb(125, 147, 57);" cx="453.117" cy="93.081" rx="578.856" ry="133.295"/>
    <ellipse style="paint-order: fill; fill: rgb(186, 218, 85);" cx="450" cy="85.5" rx="578.856" ry="133.295"/>
  </g>
  <g transform="matrix(0.09999802, -0.000619, -0.000619, -0.09999802, -4048.13857716, -767.68315688)" fill="#f443e5" stroke="none" style="transform-origin: 4487.868313px 844.137442px;">
    <path d="M 7383.99 1607.33 C 7277.99 1595.33 7201.99 1552.33 7160.99 1477.33 C 7075.99 1322.33 7105.99 1093.33 7223.99 1005.33 C 7318.99 935.326 7430.99 900.326 7628.99 879.326 C 7725.99 868.326 7751.99 850.326 7751.99 795.326 C 7751.99 719.326 7740.99 713.326 7604.99 713.326 C 7447.99 714.326 7433.99 718.326 7425.99 768.326 C 7421.99 790.326 7414.99 811.326 7408.99 815.326 C 7373.99 836.326 7128.99 858.326 7117.99 840.326 C 7106.99 822.326 7145.99 671.326 7170.99 634.326 C 7197.99 592.326 7282.99 531.326 7341.99 509.326 C 7360.99 502.326 7427.99 490.326 7490.99 483.326 C 7751.99 451.326 7904.99 507.326 7996.99 668.326 C 8013.99 698.326 8016.99 721.326 8016.99 833.326 C 8016.99 955.326 8014.99 966.326 7988.99 1015.33 C 7924.99 1137.33 7807.99 1194.33 7581.99 1213.33 C 7540.99 1217.33 7479.99 1225.33 7446.99 1232.33 L 7386.99 1245.33 L 7386.99 1314.33 L 7386.99 1383.33 L 7506.99 1386.33 C 7659.99 1390.33 7667.99 1388.33 7678.99 1341.33 L 7687.99 1304.33 L 7761.99 1292.33 C 7878.99 1273.33 7938.99 1274.33 7950.99 1297.33 C 7979.99 1351.33 7916.99 1479.33 7834.99 1534.33 C 7806.99 1553.33 7776.99 1568.33 7768.99 1568.33 C 7760.99 1568.33 7738.99 1574.33 7720.99 1582.33 C 7688.99 1595.33 7634.99 1603.33 7519.99 1612.33 C 7490.99 1614.33 7429.99 1612.33 7383.99 1607.33 Z" style="fill: rgb(135, 37, 127); transform-box: fill-box; transform-origin: 50% 50%;"/>
    <path d="M 2161.99 1608.33 C 2154.99 1595.33 2152.99 1371.33 2156.99 896.326 C 2162.99 170.326 2165.99 48.326 2181.99 18.326 C 2187.99 7.326 2208.99 -1.674 2236.99 -5.674 C 2314.99 -17.674 3024.99 -29.674 3044.99 -19.674 C 3060.99 -11.674 3061.99 4.326 3059.99 136.326 L 3056.99 283.326 L 2826.99 286.326 C 2685.99 287.326 2593.99 292.326 2586.99 299.326 C 2579.99 306.326 2576.99 524.326 2576.99 952.326 C 2576.99 1482.33 2574.99 1598.33 2562.99 1611.33 C 2550.99 1626.33 2523.99 1628.33 2360.99 1628.33 C 2183.99 1628.33 2171.99 1627.33 2161.99 1608.33 Z" style="fill: #87257fff;"/>
    <path d="M 5436.99 1529.33 L 5376.99 1523.33 L 5376.99 1058.33 C 5376.99 542.326 5389.99 59.326 5403.99 41.326 C 5416.99 25.326 5521.99 18.326 5916.99 8.326 C 6118.99 3.326 6260.99 4.326 6267.99 9.326 C 6283.99 22.326 6295.99 276.326 6280.99 294.326 C 6271.99 305.326 6222.99 308.326 6030.99 308.326 L 5791.99 308.326 L 5789.99 921.326 L 5786.99 1533.33 L 5641.99 1534.33 C 5561.99 1534.33 5469.99 1532.33 5436.99 1529.33 Z" style="fill: #87257fff;"/>
    <path d="M 876.992 1492.33 C 644.992 1456.33 535.992 1421.33 371.992 1333.33 C 284.992 1286.33 150.992 1146.33 112.992 1063.33 C 55.992 938.326 56.992 941.326 57.992 783.326 C 58.992 646.326 60.992 628.326 84.992 569.326 C 127.992 466.326 156.992 425.326 245.992 341.326 C 311.992 279.326 353.992 250.326 434.992 210.326 C 491.992 181.326 545.992 158.326 554.992 158.326 C 563.992 158.326 585.992 152.326 603.992 144.326 C 621.992 136.326 672.992 122.326 716.992 111.326 C 834.992 84.326 1340.99 84.326 1486.99 112.326 C 1765.99 164.326 1946.99 276.326 2021.99 443.326 C 2049.99 505.326 2072.99 594.326 2065.99 612.326 C 2056.99 634.326 2047.99 635.326 1781.99 648.326 L 1546.99 659.326 L 1524.99 633.326 C 1511.99 619.326 1501.99 595.326 1501.99 580.326 C 1501.99 565.326 1493.99 526.326 1483.99 493.326 L 1465.99 433.326 L 1135.99 430.326 C 835.992 428.326 805.992 429.326 794.992 445.326 C 767.992 481.326 785.992 1172.33 813.992 1206.33 C 821.992 1215.33 887.992 1218.33 1100.99 1216.33 L 1376.99 1213.33 L 1389.99 1118.33 C 1411.99 950.326 1407.99 960.326 1449.99 948.326 C 1470.99 942.326 1607.99 938.326 1772.99 938.326 C 2017.99 938.326 2060.99 940.326 2071.99 953.326 C 2089.99 975.326 2077.99 1102.33 2052.99 1159.33 C 2028.99 1213.33 1994.99 1250.33 1916.99 1308.33 C 1780.99 1410.33 1624.99 1463.33 1371.99 1492.33 C 1210.99 1511.33 1000.99 1511.33 876.992 1492.33 Z" style="fill: rgb(135, 37, 127);"/>
    <path d="M 2806.99 1411.33 C 2760.99 1400.33 2761.99 1405.33 2761.99 1008.33 L 2761.99 631.326 L 2790.99 591.326 C 2838.99 525.326 2910.99 478.326 3015.99 444.326 C 3147.99 401.326 3398.99 439.326 3549.99 523.326 C 3603.99 553.326 3618.99 554.326 3639.99 528.326 C 3655.99 509.326 3668.99 507.326 3806.99 505.326 C 3889.99 504.326 3965.99 507.326 3975.99 511.326 C 3994.99 518.326 3994.99 531.326 3987.99 946.326 C 3981.99 1299.33 3978.99 1377.33 3965.99 1396.33 C 3950.99 1418.33 3949.99 1418.33 3748.99 1416.33 L 3546.99 1413.33 L 3541.99 1066.33 C 3538.99 876.326 3534.99 717.326 3531.99 714.326 C 3526.99 710.326 3268.99 705.326 3193.99 708.326 C 3182.99 708.326 3180.99 770.326 3183.99 1051.33 L 3186.99 1393.33 L 3131.99 1405.33 C 3077.99 1416.33 2845.99 1420.33 2806.99 1411.33 Z" style="fill: rgb(135, 37, 127);"/>
    <path d="M 6296.99 1397.33 C 6206.99 1370.33 6162.99 1353.33 6149.99 1340.33 C 6142.99 1333.33 6132.99 1328.33 6126.99 1328.33 C 6106.99 1328.33 6025.99 1244.33 6003.99 1201.33 C 5961.99 1120.33 5949.99 1072.33 5944.99 967.326 C 5938.99 844.326 5952.99 781.326 6007.99 681.326 C 6043.99 617.326 6126.99 534.326 6183.99 507.326 C 6334.99 435.326 6389.99 423.326 6561.99 423.326 C 6715.99 424.326 6754.99 432.326 6869.99 486.326 C 6930.99 516.326 7004.99 590.326 7031.99 651.326 C 7073.99 743.326 7058.99 754.326 6874.99 761.326 L 6731.99 768.326 L 6714.99 735.326 C 6705.99 718.326 6695.99 690.326 6691.99 673.326 L 6685.99 643.326 L 6550.99 640.326 C 6449.99 638.326 6411.99 641.326 6404.99 650.326 C 6398.99 657.326 6392.99 704.326 6390.99 753.326 L 6386.99 843.326 L 6716.99 843.326 L 7046.99 843.326 L 7049.99 951.326 C 7051.99 1042.33 7048.99 1069.33 7030.99 1119.33 C 6983.99 1248.33 6852.99 1343.33 6639.99 1402.33 C 6560.99 1424.33 6376.99 1422.33 6296.99 1397.33 Z M 6584.99 1189.33 C 6610.99 1185.33 6636.99 1177.33 6642.99 1171.33 C 6658.99 1155.33 6665.99 1060.33 6651.99 1043.33 C 6633.99 1021.33 6293.99 1021.33 6285.99 1043.33 C 6282.99 1051.33 6284.99 1089.33 6291.99 1128.33 L 6303.99 1198.33 L 6419.99 1197.33 C 6484.99 1197.33 6558.99 1193.33 6584.99 1189.33 Z" style="fill: rgb(135, 37, 127);"/>
    <path d="M 4445.99 1308.33 C 4235.99 1247.33 4132.99 1125.33 4099.99 901.326 C 4084.99 796.326 4100.99 644.326 4136.99 566.326 C 4184.99 457.326 4265.99 371.326 4368.99 319.326 C 4447.99 278.326 4512.99 260.326 4633.99 244.326 C 4934.99 205.326 5188.99 326.326 5231.99 529.326 C 5242.99 577.326 5242.99 591.326 5232.99 598.326 C 5217.99 606.326 4937.99 618.326 4909.99 610.326 C 4898.99 607.326 4891.99 596.326 4891.99 581.326 C 4891.99 568.326 4882.99 539.326 4871.99 518.326 L 4851.99 478.326 L 4718.99 478.326 C 4628.99 478.326 4581.99 482.326 4573.99 490.326 C 4566.99 497.326 4561.99 518.326 4561.99 539.326 C 4561.99 559.326 4556.99 599.326 4551.99 629.326 C 4544.99 663.326 4544.99 685.326 4550.99 691.326 C 4556.99 697.326 4698.99 701.326 4903.99 702.326 L 5246.99 703.326 L 5245.99 813.326 C 5245.99 874.326 5239.99 948.326 5232.99 978.326 C 5198.99 1122.33 5060.99 1239.33 4836.99 1312.33 C 4765.99 1335.33 4530.99 1333.33 4445.99 1308.33 Z M 4809.99 1071.33 C 4830.99 1058.33 4832.99 1051.33 4829.99 985.326 L 4826.99 913.326 L 4647.99 906.326 C 4522.99 901.326 4463.99 902.326 4454.99 910.326 C 4430.99 930.326 4443.99 1071.33 4471.99 1088.33 C 4493.99 1101.33 4785.99 1087.33 4809.99 1071.33 Z" style="fill: rgb(135, 37, 127);"/>
    <path d="M 8304.99 1307.33 C 8229.99 1283.33 8170.99 1229.33 8126.99 1142.33 C 8098.99 1087.33 8096.99 1076.33 8098.99 983.326 C 8099.99 906.326 8104.99 872.326 8120.99 837.326 C 8148.99 774.326 8213.99 704.326 8266.99 678.326 C 8291.99 666.326 8313.99 652.326 8317.99 647.326 C 8320.99 642.326 8335.99 638.326 8351.99 638.326 C 8367.99 638.326 8392.99 633.326 8408.99 627.326 C 8432.99 617.326 8513.99 603.326 8679.99 581.326 C 8734.99 574.326 8745.99 552.326 8734.99 483.326 L 8726.99 433.326 L 8582.99 430.326 C 8493.99 428.326 8434.99 431.326 8426.99 438.326 C 8419.99 444.326 8411.99 466.326 8407.99 489.326 C 8399.99 540.326 8389.99 543.326 8232.99 552.326 L 8108.99 559.326 L 8114.99 501.326 C 8123.99 411.326 8138.99 374.326 8185.99 321.326 C 8265.99 233.326 8400.99 188.326 8585.99 188.326 C 8789.99 189.326 8911.99 247.326 8970.99 372.326 C 8999.99 432.326 9001.99 443.326 9001.99 555.326 C 9001.99 661.326 8998.99 680.326 8977.99 724.326 C 8932.99 818.326 8876.99 862.326 8761.99 896.326 C 8715.99 910.326 8554.99 935.326 8466.99 943.326 C 8428.99 946.326 8391.99 954.326 8384.99 960.326 C 8376.99 966.326 8371.99 993.326 8371.99 1029.33 L 8371.99 1087.33 L 8409.99 1097.33 C 8457.99 1111.33 8575.99 1111.33 8624.99 1097.33 C 8654.99 1089.33 8661.99 1082.33 8661.99 1062.33 C 8661.99 1048.33 8666.99 1028.33 8671.99 1017.33 C 8681.99 1000.33 8693.99 998.326 8811.99 998.326 L 8941.99 998.326 L 8941.99 1046.33 C 8941.99 1135.33 8880.99 1218.33 8782.99 1264.33 C 8651.99 1327.33 8428.99 1347.33 8304.99 1307.33 Z" style="fill: rgb(135, 37, 127);"/>
    <path d="M2120 1650 c-7 -13 -9 -237 -5 -712 6 -726 9 -848 25 -878 6 -11 27 -20 55 -24 78 -12 788 -24 808 -14 16 8 17 24 15 156 l-3 147 -230 3 c-141 1 -233 6 -240 13 -7 7 -10 225 -10 653 0 530 -2 646 -14 659 -12 15 -39 17 -202 17 -177 0 -189 -1 -199 -20z"/>
    <path d="M7342 1649 c-106 -12 -182 -55 -223 -130 -85 -155 -55 -384 63 -472 95 -70 207 -105 405 -126 97 -11 123 -29 123 -84 0 -76 -11 -82 -147 -82 -157 1 -171 5 -179 55 -4 22 -11 43 -17 47 -35 21 -280 43 -291 25 -11 -18 28 -169 53 -206 27 -42 112 -103 171 -125 19 -7 86 -19 149 -26 261 -32 414 24 506 185 17 30 20 53 20 165 0 122 -2 133 -28 182 -64 122 -181 179 -407 198 -41 4 -102 12 -135 19 l-60 13 0 69 0 69 120 3 c153 4 161 2 172 -45 l9 -37 74 -12 c117 -19 177 -18 189 5 29 54 -34 182 -116 237 -28 19 -58 34 -66 34 -8 0 -30 6 -48 14 -32 13 -86 21 -201 30 -29 2 -90 0 -136 -5z"/>
    <path d="M5395 1571 l-60 -6 0 -465 c0 -516 13 -999 27 -1017 13 -16 118 -23 513 -33 202 -5 344 -4 351 1 16 13 28 267 13 285 -9 11 -58 14 -250 14 l-239 0 -2 613 -3 612 -145 1 c-80 0 -172 -2 -205 -5z"/>
    <path d="M835 1534 c-232 -36 -341 -71 -505 -159 -87 -47 -221 -187 -259 -270 -57 -125 -56 -122 -55 -280 1 -137 3 -155 27 -214 43 -103 72 -144 161 -228 66 -62 108 -91 189 -131 57 -29 111 -52 120 -52 9 0 31 -6 49 -14 18 -8 69 -22 113 -33 118 -27 624 -27 770 1 279 52 460 164 535 331 28 62 51 151 44 169 -9 22 -18 23 -284 36 l-235 11 -22 -26 c-13 -14 -23 -38 -23 -53 0 -15 -8 -54 -18 -87 l-18 -60 -330 -3 c-300 -2 -330 -1 -341 15 -27 36 -9 727 19 761 8 9 74 12 287 10 l276 -3 13 -95 c22 -168 18 -158 60 -170 21 -6 158 -10 323 -10 245 0 288 2 299 15 18 22 6 149 -19 206 -24 54 -58 91 -136 149 -136 102 -292 155 -545 184 -161 19 -371 19 -495 0z"/>
    <path d="M2765 1453 c-46 -11 -45 -6 -45 -403 l0 -377 29 -40 c48 -66 120 -113 225 -147 132 -43 383 -5 534 79 54 30 69 31 90 5 16 -19 29 -21 167 -23 83 -1 159 2 169 6 19 7 19 20 12 435 -6 353 -9 431 -22 450 -15 22 -16 22 -217 20 l-202 -3 -5 -347 c-3 -190 -7 -349 -10 -352 -5 -4 -263 -9 -338 -6 -11 0 -13 62 -10 343 l3 342 -55 12 c-54 11 -286 15 -325 6z"/>
    <path d="M6255 1439 c-90 -27 -134 -44 -147 -57 -7 -7 -17 -12 -23 -12 -20 0 -101 -84 -123 -127 -42 -81 -54 -129 -59 -234 -6 -123 8 -186 63 -286 36 -64 119 -147 176 -174 151 -72 206 -84 378 -84 154 1 193 9 308 63 61 30 135 104 162 165 42 92 27 103 -157 110 l-143 7 -17 -33 c-9 -17 -19 -45 -23 -62 l-6 -30 -135 -3 c-101 -2 -139 1 -146 10 -6 7 -12 54 -14 103 l-4 90 330 0 330 0 3 108 c2 91 -1 118 -19 168 -47 129 -178 224 -391 283 -79 22 -263 20 -343 -5z m288 -208 c26 -4 52 -12 58 -18 16 -16 23 -111 9 -128 -18 -22 -358 -22 -366 0 -3 8 -1 46 6 85 l12 70 116 -1 c65 0 139 -4 165 -8z"/>
    <path d="M4404 1350 c-210 -61 -313 -183 -346 -407 -15 -105 1 -257 37 -335 48 -109 129 -195 232 -247 79 -41 144 -59 265 -75 301 -39 555 82 598 285 11 48 11 62 1 69 -15 8 -295 20 -323 12 -11 -3 -18 -14 -18 -29 0 -13 -9 -42 -20 -63 l-20 -40 -133 0 c-90 0 -137 4 -145 12 -7 7 -12 28 -12 49 0 20 -5 60 -10 90 -7 34 -7 56 -1 62 6 6 148 10 353 11 l343 1 -1 110 c0 61 -6 135 -13 165 -34 144 -172 261 -396 334 -71 23 -306 21 -391 -4z m364 -237 c21 -13 23 -20 20 -86 l-3 -72 -179 -7 c-125 -5 -184 -4 -193 4 -24 20 -11 161 17 178 22 13 314 -1 338 -17z"/>
    <path d="M8263 1349 c-75 -24 -134 -78 -178 -165 -28 -55 -30 -66 -28 -159 1 -77 6 -111 22 -146 28 -63 93 -133 146 -159 25 -12 47 -26 51 -31 3 -5 18 -9 34 -9 16 0 41 -5 57 -11 24 -10 105 -24 271 -46 55 -7 66 -29 55 -98 l-8 -50 -144 -3 c-89 -2 -148 1 -156 8 -7 6 -15 28 -19 51 -8 51 -18 54 -175 63 l-124 7 6 -58 c9 -90 24 -127 71 -180 80 -88 215 -133 400 -133 204 1 326 59 385 184 29 60 31 71 31 183 0 106 -3 125 -24 169 -45 94 -101 138 -216 172 -46 14 -207 39 -295 47 -38 3 -75 11 -82 17 -8 6 -13 33 -13 69 l0 58 38 10 c48 14 166 14 215 0 30 -8 37 -15 37 -35 0 -14 5 -34 10 -45 10 -17 22 -19 140 -19 l130 0 0 48 c0 89 -61 172 -159 218 -131 63 -354 83 -478 43z"/>
  </g>
  <g transform="matrix(1, 0, 0, 1, 233.4662017822266, 153.26892089843753)">
    <g fill="#87257fff">
      <g transform="translate(0, 0)">
        <path d="M38.01 27.93Q36.43 27.93 35.01 27.97Q33.59 28.00 32.18 28.08Q30.76 28.15 29.27 28.27Q27.78 28.39 26.10 28.56Q26.34 27.32 26.45 25.88Q26.56 24.44 26.56 22.92Q26.56 22.00 26.53 21.07Q26.49 20.14 26.37 19.31Q24.61 18.82 22.39 18.59Q20.17 18.36 17.92 18.36Q16.33 18.36 14.84 18.47Q13.35 18.58 12.11 18.77Q11.62 21.75 11.39 24.87Q11.16 27.98 11.16 31.18Q11.16 34.59 11.40 37.96Q11.65 41.33 12.11 44.63Q13.01 44.95 14.16 45.19Q15.31 45.43 16.55 45.61Q17.80 45.78 19.08 45.87Q20.36 45.97 21.56 45.97Q22.39 45.97 23.16 45.94Q23.93 45.90 24.61 45.78Q24.95 44.31 25.16 42.52Q25.37 40.72 25.37 38.92Q25.37 37.48 25.22 36.11Q27.17 36.30 28.94 36.39Q30.71 36.47 32.57 36.47Q34.96 36.47 37.82 36.33Q37.35 38.99 36.43 41.04Q35.50 43.09 34.27 44.63Q33.03 46.17 31.58 47.27Q30.13 48.36 28.60 49.10Q27.08 49.83 25.56 50.27Q24.05 50.71 22.72 50.93Q21.39 51.15 20.30 51.21Q19.21 51.27 18.55 51.27Q14.65 51.27 11.76 50.49Q8.86 49.71 6.81 48.36Q4.76 47.02 3.43 45.24Q2.10 43.46 1.34 41.44Q0.59 39.43 0.29 37.30Q0 35.18 0 33.18Q0 28.61 1.15 24.95Q2.29 21.29 4.72 18.65Q7.15 16.02 10.91 14.49Q14.67 12.96 19.90 12.67Q23.27 12.67 26.32 13.67Q29.37 14.67 31.80 16.60Q34.23 18.53 35.86 21.39Q37.50 24.24 38.01 27.93ZM50.02 12.38Q49.39 21.56 49.18 30.65Q48.97 39.75 48.97 48.78L41.36 48.78Q41.48 44.29 41.53 39.87Q41.58 35.45 41.58 30.98Q41.58 26.29 41.53 21.68Q41.48 17.07 41.36 12.38L50.02 12.38ZM73.95 49.98Q73.95 49.27 73.93 48.55Q73.90 47.83 73.90 47.12Q72.61 48.29 71.20 48.89Q69.80 49.49 68.63 49.78Q67.26 50.12 65.92 50.17Q63.48 50.17 61.22 49.43Q58.96 48.68 57.20 47.19Q55.44 45.70 54.36 43.47Q53.27 41.24 53.15 38.28Q53.15 35.30 53.96 32.85Q54.76 30.40 56.37 28.64Q57.98 26.88 60.38 25.92Q62.77 24.95 65.92 24.93Q66.02 24.93 66.66 24.96Q67.31 25 68.26 25.18Q69.21 25.37 70.34 25.77Q71.46 26.17 72.56 26.88L72.17 23.88L81.81 23.22Q81.52 30.22 81.52 37.16Q81.52 38.84 81.53 40.34Q81.54 41.85 81.58 43.32Q81.62 44.80 81.68 46.30Q81.74 47.80 81.81 49.46L73.95 49.98M62.55 44.07Q65.45 43.95 68.26 43.68Q71.07 43.41 73.80 42.87Q73.73 39.84 73.55 37.01Q73.36 34.18 73.05 31.23L71.66 31.23Q69.29 31.23 66.91 31.38Q64.53 31.54 62.11 31.91Q61.82 34.47 61.82 37.06Q61.82 38.04 61.87 38.88Q61.91 39.72 62.00 40.55Q62.08 41.38 62.22 42.24Q62.35 43.09 62.55 44.07ZM105.05 37.48Q105.10 36.87 105.15 36.27Q105.20 35.67 105.20 35.06Q105.20 32.96 104.76 30.91Q102.49 31.01 100.26 31.23Q98.02 31.45 95.75 31.81L95.75 36.67Q95.75 39.87 95.75 43.01Q95.75 46.14 95.80 49.32L87.11 49.93Q87.18 49.02 87.19 48.14Q87.21 47.27 87.21 46.36Q87.21 40.70 87.00 35.16Q86.79 29.61 86.40 24.02L95.80 23.22Q95.80 23.90 95.78 24.57Q95.75 25.24 95.75 25.93Q97.17 24.90 98.60 24.37Q100.02 23.83 101.20 23.56Q102.54 23.27 103.81 23.22Q106.69 23.36 108.96 24.54Q109.91 25.02 110.84 25.79Q111.77 26.56 112.50 27.67Q113.23 28.78 113.67 30.29Q114.11 31.79 114.11 33.76Q114.11 34.45 114.04 35.19Q113.96 35.94 113.84 36.77L105.05 37.48ZM140.14 21.68Q139.97 23.68 139.31 25.44Q138.65 27.20 137.63 28.72Q136.62 30.25 135.35 31.56Q134.08 32.86 132.69 33.96Q135.21 37.16 137.01 40.59Q138.82 44.02 140.14 47.73L131.74 49.66Q131.40 46.34 130.47 43.23Q129.54 40.11 127.86 37.23Q126.98 37.72 126.14 38.10Q125.29 38.48 124.58 38.82L124.58 41.02Q124.58 42.99 124.65 44.90Q124.71 46.80 124.71 48.78L117.65 49.66Q117.65 40.60 117.38 31.52Q117.11 22.44 116.50 13.33L125.59 13.33Q125.22 18.70 124.98 24.04Q124.73 29.37 124.66 34.77Q125.88 33.79 126.83 32.69Q127.78 31.59 128.52 30.49Q129.25 29.39 129.76 28.31Q130.27 27.22 130.64 26.25Q131.47 23.95 131.74 21.68L140.14 21.68ZM151.59 11.38L149.63 26.37L144.65 26.37L142.65 11.38L151.59 11.38ZM181.54 43.48Q181.54 45.63 180.44 47.06Q179.35 48.49 177.56 49.35Q175.78 50.22 173.51 50.57Q171.24 50.93 168.90 50.93Q167.60 50.93 166.13 50.77Q164.65 50.61 163.16 50.21Q161.67 49.80 160.27 49.13Q158.86 48.46 157.71 47.44Q156.57 46.41 155.75 45.02Q154.93 43.63 154.64 41.77L164.55 41.67L164.94 45.92L172.53 45.92L173.10 41.02Q171.58 40.67 169.63 40.43Q167.68 40.19 165.63 39.83Q163.57 39.48 161.60 38.92Q159.62 38.35 158.08 37.38Q156.54 36.40 155.59 34.91Q154.64 33.42 154.64 31.23Q154.64 28.86 155.79 27.23Q156.93 25.61 158.80 24.62Q160.67 23.63 163.04 23.17Q165.41 22.71 167.85 22.63Q169.14 22.63 170.64 22.78Q172.14 22.92 173.63 23.30Q175.12 23.68 176.50 24.34Q177.88 25 178.97 26.01Q180.05 27.03 180.75 28.45Q181.45 29.88 181.54 31.81L171.95 32.23L171.95 27.42L163.70 27.42L163.70 33.91Q165.28 34.25 167.24 34.44Q169.19 34.62 171.17 34.91Q173.14 35.21 175.01 35.72Q176.88 36.23 178.33 37.18Q179.79 38.13 180.66 39.65Q181.54 41.16 181.54 43.48ZM249.15 12.87L241.53 49.17L226.34 49.98Q226.07 47.66 225.74 45.09Q225.42 42.53 225.06 39.95Q224.71 37.38 224.34 34.90Q223.97 32.42 223.65 30.25Q223.32 28.08 223.02 26.33Q222.73 24.58 222.53 23.46Q222.34 24.83 221.97 26.93Q221.61 29.03 221.17 31.51Q220.73 33.98 220.24 36.65Q219.75 39.31 219.30 41.81Q218.85 44.31 218.48 46.45Q218.12 48.58 217.90 49.98L205.40 49.98L198.24 13.82L209.79 12.87Q210.91 19.53 211.89 25.15Q212.30 27.54 212.71 29.94Q213.11 32.35 213.46 34.41Q213.82 36.47 214.09 38.04Q214.36 39.60 214.50 40.33Q214.89 38.84 215.28 36.98Q215.67 35.11 216.08 33.06Q216.48 31.01 216.86 28.86Q217.24 26.71 217.59 24.65Q217.94 22.58 218.24 20.72Q218.53 18.85 218.76 17.36Q218.99 15.87 219.14 14.87Q219.29 13.87 219.34 13.53L230.83 12.87Q231.71 18.43 232.57 23.61Q232.93 25.83 233.31 28.17Q233.69 30.52 234.08 32.76Q234.47 35.01 234.84 37.04Q235.21 39.06 235.50 40.63Q235.72 39.06 236.02 37.02Q236.33 34.99 236.68 32.74Q237.04 30.49 237.43 28.15Q237.82 25.81 238.18 23.61Q239.04 18.43 239.99 12.87L249.15 12.87ZM271.19 49.98Q271.19 49.27 271.17 48.55Q271.14 47.83 271.14 47.12Q269.85 48.29 268.44 48.89Q267.04 49.49 265.87 49.78Q264.50 50.12 263.16 50.17Q260.72 50.17 258.46 49.43Q256.20 48.68 254.44 47.19Q252.69 45.70 251.60 43.47Q250.51 41.24 250.39 38.28Q250.39 35.30 251.20 32.85Q252.00 30.40 253.61 28.64Q255.22 26.88 257.62 25.92Q260.01 24.95 263.16 24.93Q263.26 24.93 263.90 24.96Q264.55 25 265.50 25.18Q266.46 25.37 267.58 25.77Q268.70 26.17 269.80 26.88L269.41 23.88L279.05 23.22Q278.76 30.22 278.76 37.16Q278.76 38.84 278.77 40.34Q278.78 41.85 278.82 43.32Q278.86 44.80 278.92 46.30Q278.98 47.80 279.05 49.46L271.19 49.98M259.79 44.07Q262.70 43.95 265.50 43.68Q268.31 43.41 271.04 42.87Q270.97 39.84 270.79 37.01Q270.61 34.18 270.29 31.23L268.90 31.23Q266.53 31.23 264.15 31.38Q261.77 31.54 259.35 31.91Q259.06 34.47 259.06 37.06Q259.06 38.04 259.11 38.88Q259.16 39.72 259.24 40.55Q259.33 41.38 259.46 42.24Q259.59 43.09 259.79 44.07ZM302.29 37.48Q302.34 36.87 302.39 36.27Q302.44 35.67 302.44 35.06Q302.44 32.96 302.00 30.91Q299.73 31.01 297.50 31.23Q295.26 31.45 292.99 31.81L292.99 36.67Q292.99 39.87 292.99 43.01Q292.99 46.14 293.04 49.32L284.35 49.93Q284.42 49.02 284.44 48.14Q284.45 47.27 284.45 46.36Q284.45 40.70 284.24 35.16Q284.03 29.61 283.64 24.02L293.04 23.22Q293.04 23.90 293.02 24.57Q292.99 25.24 292.99 25.93Q294.41 24.90 295.84 24.37Q297.27 23.83 298.44 23.56Q299.78 23.27 301.05 23.22Q303.93 23.36 306.20 24.54Q307.15 25.02 308.08 25.79Q309.01 26.56 309.74 27.67Q310.47 28.78 310.91 30.29Q311.35 31.79 311.35 33.76Q311.35 34.45 311.28 35.19Q311.21 35.94 311.08 36.77L302.29 37.48ZM342.63 13.87Q342.07 22.61 341.82 31.58Q341.58 40.55 341.58 49.41L333.45 49.41L333.59 46.68Q332.42 47.80 331.01 48.41Q329.59 49.02 328.32 49.29Q326.83 49.61 325.34 49.66Q322.56 49.66 320.32 48.66Q318.09 47.66 316.54 45.85Q314.99 44.04 314.16 41.50Q313.33 38.96 313.33 35.91Q313.33 33.89 313.82 32.15Q314.31 30.42 315.16 29.00Q316.02 27.59 317.16 26.51Q318.31 25.44 319.60 24.71Q320.90 23.97 322.29 23.60Q323.68 23.22 325.05 23.22Q326.73 23.27 328.34 23.66Q329.03 23.83 329.76 24.08Q330.49 24.34 331.21 24.71Q331.93 25.07 332.60 25.56Q333.28 26.05 333.84 26.71Q333.76 23.32 333.67 19.98Q333.57 16.65 333.45 13.33L342.63 13.87M330.64 43.26Q331.32 43.26 332.09 43.26Q332.86 43.26 333.69 43.21Q333.81 40.70 333.85 38.15Q333.89 35.60 333.89 33.01L333.89 30.03Q332.06 29.83 330.51 29.70Q328.96 29.57 327.20 29.57Q326.27 29.57 325.28 29.60Q324.29 29.64 323.10 29.71Q322.78 31.91 322.63 34.08Q322.49 36.25 322.49 38.48Q322.49 39.58 322.50 40.65Q322.51 41.72 322.63 42.82Q323.85 42.94 324.89 43.02Q325.93 43.09 326.89 43.15Q327.86 43.21 328.77 43.24Q329.69 43.26 330.64 43.26ZM365.23 37.48Q365.28 36.87 365.33 36.27Q365.38 35.67 365.38 35.06Q365.38 32.96 364.94 30.91Q362.67 31.01 360.44 31.23Q358.20 31.45 355.93 31.81L355.93 36.67Q355.93 39.87 355.93 43.01Q355.93 46.14 355.98 49.32L347.29 49.93Q347.36 49.02 347.38 48.14Q347.39 47.27 347.39 46.36Q347.39 40.70 347.18 35.16Q346.97 29.61 346.58 24.02L355.98 23.22Q355.98 23.90 355.96 24.57Q355.93 25.24 355.93 25.93Q357.35 24.90 358.78 24.37Q360.21 23.83 361.38 23.56Q362.72 23.27 363.99 23.22Q366.87 23.36 369.14 24.54Q370.09 25.02 371.02 25.79Q371.95 26.56 372.68 27.67Q373.41 28.78 373.85 30.29Q374.29 31.79 374.29 33.76Q374.29 34.45 374.22 35.19Q374.15 35.94 374.02 36.77L365.23 37.48ZM395.02 44.12Q395.17 42.04 395.23 40.09Q395.29 38.13 395.29 36.23Q395.29 34.25 395.23 32.34Q395.17 30.42 395.02 28.37Q394.19 28.25 393.37 28.21Q392.55 28.17 391.72 28.17Q388.31 28.17 385.13 28.93Q385.06 30.25 385.00 31.54Q384.94 32.84 384.94 34.13Q384.94 36.72 385.14 39.29Q385.35 41.87 385.77 44.68Q386.33 44.73 386.90 44.73Q387.48 44.73 388.09 44.73Q389.77 44.73 391.52 44.58Q393.26 44.43 395.02 44.12M404.08 36.43Q404.08 39.33 402.94 41.88Q401.81 44.43 399.85 46.34Q397.90 48.24 395.28 49.35Q392.65 50.46 389.67 50.46Q386.72 50.46 384.24 49.35Q381.76 48.24 379.97 46.34Q378.17 44.43 377.17 41.88Q376.17 39.33 376.17 36.43Q376.17 32.84 377.17 30.20Q378.17 27.56 379.97 25.83Q381.76 24.10 384.24 23.25Q386.72 22.41 389.67 22.41Q392.65 22.41 395.28 23.36Q397.90 24.32 399.85 26.12Q401.81 27.93 402.94 30.53Q404.08 33.13 404.08 36.43ZM436.43 36.96Q436.43 39.01 435.94 40.73Q435.45 42.46 434.59 43.87Q433.74 45.29 432.60 46.36Q431.47 47.44 430.16 48.17Q428.86 48.90 427.47 49.28Q426.07 49.66 424.73 49.66Q423.12 49.61 421.58 49.27Q420.92 49.12 420.20 48.89Q419.48 48.66 418.77 48.32Q418.07 47.97 417.40 47.52Q416.72 47.07 416.16 46.46Q416.21 47.22 416.26 47.96Q416.31 48.71 416.38 49.41L408.18 49.41Q408.18 40.63 407.93 31.62Q407.69 22.61 407.13 13.87L416.38 13.33Q416.19 16.82 416.06 20.36Q415.94 23.90 415.87 27.47Q416.43 26.81 417.09 26.29Q417.75 25.78 418.47 25.39Q419.19 25 419.91 24.74Q420.63 24.49 421.29 24.32Q422.85 23.93 424.46 23.88Q427.27 23.88 429.49 24.78Q431.71 25.68 433.25 27.37Q434.79 29.05 435.61 31.48Q436.43 33.91 436.43 36.96M415.87 33.01Q415.87 35.52 415.91 38.00Q415.94 40.48 416.02 42.92Q416.94 43.04 417.76 43.12Q418.58 43.19 419.37 43.23Q420.17 43.26 420.95 43.29Q421.73 43.31 422.58 43.31Q424.34 43.31 426.68 43.16Q426.98 40.97 427.15 38.81Q427.32 36.65 427.32 34.42Q427.32 33.33 427.28 32.26Q427.25 31.20 427.12 30.08Q425.81 29.96 424.68 29.88Q423.56 29.81 422.53 29.81Q420.80 29.81 419.23 30.02Q417.65 30.22 415.87 30.66L415.87 33.01ZM467.07 37.72L447.97 39.26Q448.10 40.77 448.32 42.26Q448.54 43.75 448.88 45.26Q451.03 45.41 453.03 45.41Q454.13 45.41 455.15 45.37Q456.18 45.34 457.28 45.26Q457.32 44.78 457.35 44.29Q457.37 43.80 457.37 43.31Q457.37 42.87 457.36 42.44Q457.35 42.02 457.28 41.58L466.48 41.77Q465.80 44.09 464.51 45.75Q463.23 47.41 461.49 48.47Q459.74 49.54 457.59 50.02Q455.44 50.51 453.08 50.51Q450.17 50.51 447.62 49.73Q445.07 48.95 443.18 47.20Q441.28 45.46 440.20 42.65Q439.11 39.84 439.11 35.77Q439.11 32.47 440.26 30.10Q441.41 27.73 443.32 26.20Q445.24 24.66 447.77 23.94Q450.29 23.22 453.08 23.22Q455.98 23.22 458.53 24.00Q461.08 24.78 462.98 26.44Q464.87 28.10 465.97 30.69Q467.07 33.28 467.07 36.87L467.07 37.72M447.73 34.13L457.52 34.13Q457.52 31.10 456.91 28.37Q454.81 27.93 452.51 27.93Q450.27 27.93 447.97 28.37Q447.83 29.74 447.78 31.14Q447.73 32.54 447.73 34.13Z"/>
      </g>
    </g>
    <g fill="#f435a8ff" transform="matrix(1, 0, 0, 1, -1.507498, -1.839387)">
      <g transform="translate(0, 0)">
        <path d="M38.01 27.93Q36.43 27.93 35.01 27.97Q33.59 28.00 32.18 28.08Q30.76 28.15 29.27 28.27Q27.78 28.39 26.10 28.56Q26.34 27.32 26.45 25.88Q26.56 24.44 26.56 22.92Q26.56 22.00 26.53 21.07Q26.49 20.14 26.37 19.31Q24.61 18.82 22.39 18.59Q20.17 18.36 17.92 18.36Q16.33 18.36 14.84 18.47Q13.35 18.58 12.11 18.77Q11.62 21.75 11.39 24.87Q11.16 27.98 11.16 31.18Q11.16 34.59 11.40 37.96Q11.65 41.33 12.11 44.63Q13.01 44.95 14.16 45.19Q15.31 45.43 16.55 45.61Q17.80 45.78 19.08 45.87Q20.36 45.97 21.56 45.97Q22.39 45.97 23.16 45.94Q23.93 45.90 24.61 45.78Q24.95 44.31 25.16 42.52Q25.37 40.72 25.37 38.92Q25.37 37.48 25.22 36.11Q27.17 36.30 28.94 36.39Q30.71 36.47 32.57 36.47Q34.96 36.47 37.82 36.33Q37.35 38.99 36.43 41.04Q35.50 43.09 34.27 44.63Q33.03 46.17 31.58 47.27Q30.13 48.36 28.60 49.10Q27.08 49.83 25.56 50.27Q24.05 50.71 22.72 50.93Q21.39 51.15 20.30 51.21Q19.21 51.27 18.55 51.27Q14.65 51.27 11.76 50.49Q8.86 49.71 6.81 48.36Q4.76 47.02 3.43 45.24Q2.10 43.46 1.34 41.44Q0.59 39.43 0.29 37.30Q0 35.18 0 33.18Q0 28.61 1.15 24.95Q2.29 21.29 4.72 18.65Q7.15 16.02 10.91 14.49Q14.67 12.96 19.90 12.67Q23.27 12.67 26.32 13.67Q29.37 14.67 31.80 16.60Q34.23 18.53 35.86 21.39Q37.50 24.24 38.01 27.93ZM50.02 12.38Q49.39 21.56 49.18 30.65Q48.97 39.75 48.97 48.78L41.36 48.78Q41.48 44.29 41.53 39.87Q41.58 35.45 41.58 30.98Q41.58 26.29 41.53 21.68Q41.48 17.07 41.36 12.38L50.02 12.38ZM73.95 49.98Q73.95 49.27 73.93 48.55Q73.90 47.83 73.90 47.12Q72.61 48.29 71.20 48.89Q69.80 49.49 68.63 49.78Q67.26 50.12 65.92 50.17Q63.48 50.17 61.22 49.43Q58.96 48.68 57.20 47.19Q55.44 45.70 54.36 43.47Q53.27 41.24 53.15 38.28Q53.15 35.30 53.96 32.85Q54.76 30.40 56.37 28.64Q57.98 26.88 60.38 25.92Q62.77 24.95 65.92 24.93Q66.02 24.93 66.66 24.96Q67.31 25 68.26 25.18Q69.21 25.37 70.34 25.77Q71.46 26.17 72.56 26.88L72.17 23.88L81.81 23.22Q81.52 30.22 81.52 37.16Q81.52 38.84 81.53 40.34Q81.54 41.85 81.58 43.32Q81.62 44.80 81.68 46.30Q81.74 47.80 81.81 49.46L73.95 49.98M62.55 44.07Q65.45 43.95 68.26 43.68Q71.07 43.41 73.80 42.87Q73.73 39.84 73.55 37.01Q73.36 34.18 73.05 31.23L71.66 31.23Q69.29 31.23 66.91 31.38Q64.53 31.54 62.11 31.91Q61.82 34.47 61.82 37.06Q61.82 38.04 61.87 38.88Q61.91 39.72 62.00 40.55Q62.08 41.38 62.22 42.24Q62.35 43.09 62.55 44.07ZM105.05 37.48Q105.10 36.87 105.15 36.27Q105.20 35.67 105.20 35.06Q105.20 32.96 104.76 30.91Q102.49 31.01 100.26 31.23Q98.02 31.45 95.75 31.81L95.75 36.67Q95.75 39.87 95.75 43.01Q95.75 46.14 95.80 49.32L87.11 49.93Q87.18 49.02 87.19 48.14Q87.21 47.27 87.21 46.36Q87.21 40.70 87.00 35.16Q86.79 29.61 86.40 24.02L95.80 23.22Q95.80 23.90 95.78 24.57Q95.75 25.24 95.75 25.93Q97.17 24.90 98.60 24.37Q100.02 23.83 101.20 23.56Q102.54 23.27 103.81 23.22Q106.69 23.36 108.96 24.54Q109.91 25.02 110.84 25.79Q111.77 26.56 112.50 27.67Q113.23 28.78 113.67 30.29Q114.11 31.79 114.11 33.76Q114.11 34.45 114.04 35.19Q113.96 35.94 113.84 36.77L105.05 37.48ZM140.14 21.68Q139.97 23.68 139.31 25.44Q138.65 27.20 137.63 28.72Q136.62 30.25 135.35 31.56Q134.08 32.86 132.69 33.96Q135.21 37.16 137.01 40.59Q138.82 44.02 140.14 47.73L131.74 49.66Q131.40 46.34 130.47 43.23Q129.54 40.11 127.86 37.23Q126.98 37.72 126.14 38.10Q125.29 38.48 124.58 38.82L124.58 41.02Q124.58 42.99 124.65 44.90Q124.71 46.80 124.71 48.78L117.65 49.66Q117.65 40.60 117.38 31.52Q117.11 22.44 116.50 13.33L125.59 13.33Q125.22 18.70 124.98 24.04Q124.73 29.37 124.66 34.77Q125.88 33.79 126.83 32.69Q127.78 31.59 128.52 30.49Q129.25 29.39 129.76 28.31Q130.27 27.22 130.64 26.25Q131.47 23.95 131.74 21.68L140.14 21.68ZM151.59 11.38L149.63 26.37L144.65 26.37L142.65 11.38L151.59 11.38ZM181.54 43.48Q181.54 45.63 180.44 47.06Q179.35 48.49 177.56 49.35Q175.78 50.22 173.51 50.57Q171.24 50.93 168.90 50.93Q167.60 50.93 166.13 50.77Q164.65 50.61 163.16 50.21Q161.67 49.80 160.27 49.13Q158.86 48.46 157.71 47.44Q156.57 46.41 155.75 45.02Q154.93 43.63 154.64 41.77L164.55 41.67L164.94 45.92L172.53 45.92L173.10 41.02Q171.58 40.67 169.63 40.43Q167.68 40.19 165.63 39.83Q163.57 39.48 161.60 38.92Q159.62 38.35 158.08 37.38Q156.54 36.40 155.59 34.91Q154.64 33.42 154.64 31.23Q154.64 28.86 155.79 27.23Q156.93 25.61 158.80 24.62Q160.67 23.63 163.04 23.17Q165.41 22.71 167.85 22.63Q169.14 22.63 170.64 22.78Q172.14 22.92 173.63 23.30Q175.12 23.68 176.50 24.34Q177.88 25 178.97 26.01Q180.05 27.03 180.75 28.45Q181.45 29.88 181.54 31.81L171.95 32.23L171.95 27.42L163.70 27.42L163.70 33.91Q165.28 34.25 167.24 34.44Q169.19 34.62 171.17 34.91Q173.14 35.21 175.01 35.72Q176.88 36.23 178.33 37.18Q179.79 38.13 180.66 39.65Q181.54 41.16 181.54 43.48ZM249.15 12.87L241.53 49.17L226.34 49.98Q226.07 47.66 225.74 45.09Q225.42 42.53 225.06 39.95Q224.71 37.38 224.34 34.90Q223.97 32.42 223.65 30.25Q223.32 28.08 223.02 26.33Q222.73 24.58 222.53 23.46Q222.34 24.83 221.97 26.93Q221.61 29.03 221.17 31.51Q220.73 33.98 220.24 36.65Q219.75 39.31 219.30 41.81Q218.85 44.31 218.48 46.45Q218.12 48.58 217.90 49.98L205.40 49.98L198.24 13.82L209.79 12.87Q210.91 19.53 211.89 25.15Q212.30 27.54 212.71 29.94Q213.11 32.35 213.46 34.41Q213.82 36.47 214.09 38.04Q214.36 39.60 214.50 40.33Q214.89 38.84 215.28 36.98Q215.67 35.11 216.08 33.06Q216.48 31.01 216.86 28.86Q217.24 26.71 217.59 24.65Q217.94 22.58 218.24 20.72Q218.53 18.85 218.76 17.36Q218.99 15.87 219.14 14.87Q219.29 13.87 219.34 13.53L230.83 12.87Q231.71 18.43 232.57 23.61Q232.93 25.83 233.31 28.17Q233.69 30.52 234.08 32.76Q234.47 35.01 234.84 37.04Q235.21 39.06 235.50 40.63Q235.72 39.06 236.02 37.02Q236.33 34.99 236.68 32.74Q237.04 30.49 237.43 28.15Q237.82 25.81 238.18 23.61Q239.04 18.43 239.99 12.87L249.15 12.87ZM271.19 49.98Q271.19 49.27 271.17 48.55Q271.14 47.83 271.14 47.12Q269.85 48.29 268.44 48.89Q267.04 49.49 265.87 49.78Q264.50 50.12 263.16 50.17Q260.72 50.17 258.46 49.43Q256.20 48.68 254.44 47.19Q252.69 45.70 251.60 43.47Q250.51 41.24 250.39 38.28Q250.39 35.30 251.20 32.85Q252.00 30.40 253.61 28.64Q255.22 26.88 257.62 25.92Q260.01 24.95 263.16 24.93Q263.26 24.93 263.90 24.96Q264.55 25 265.50 25.18Q266.46 25.37 267.58 25.77Q268.70 26.17 269.80 26.88L269.41 23.88L279.05 23.22Q278.76 30.22 278.76 37.16Q278.76 38.84 278.77 40.34Q278.78 41.85 278.82 43.32Q278.86 44.80 278.92 46.30Q278.98 47.80 279.05 49.46L271.19 49.98M259.79 44.07Q262.70 43.95 265.50 43.68Q268.31 43.41 271.04 42.87Q270.97 39.84 270.79 37.01Q270.61 34.18 270.29 31.23L268.90 31.23Q266.53 31.23 264.15 31.38Q261.77 31.54 259.35 31.91Q259.06 34.47 259.06 37.06Q259.06 38.04 259.11 38.88Q259.16 39.72 259.24 40.55Q259.33 41.38 259.46 42.24Q259.59 43.09 259.79 44.07ZM302.29 37.48Q302.34 36.87 302.39 36.27Q302.44 35.67 302.44 35.06Q302.44 32.96 302.00 30.91Q299.73 31.01 297.50 31.23Q295.26 31.45 292.99 31.81L292.99 36.67Q292.99 39.87 292.99 43.01Q292.99 46.14 293.04 49.32L284.35 49.93Q284.42 49.02 284.44 48.14Q284.45 47.27 284.45 46.36Q284.45 40.70 284.24 35.16Q284.03 29.61 283.64 24.02L293.04 23.22Q293.04 23.90 293.02 24.57Q292.99 25.24 292.99 25.93Q294.41 24.90 295.84 24.37Q297.27 23.83 298.44 23.56Q299.78 23.27 301.05 23.22Q303.93 23.36 306.20 24.54Q307.15 25.02 308.08 25.79Q309.01 26.56 309.74 27.67Q310.47 28.78 310.91 30.29Q311.35 31.79 311.35 33.76Q311.35 34.45 311.28 35.19Q311.21 35.94 311.08 36.77L302.29 37.48ZM342.63 13.87Q342.07 22.61 341.82 31.58Q341.58 40.55 341.58 49.41L333.45 49.41L333.59 46.68Q332.42 47.80 331.01 48.41Q329.59 49.02 328.32 49.29Q326.83 49.61 325.34 49.66Q322.56 49.66 320.32 48.66Q318.09 47.66 316.54 45.85Q314.99 44.04 314.16 41.50Q313.33 38.96 313.33 35.91Q313.33 33.89 313.82 32.15Q314.31 30.42 315.16 29.00Q316.02 27.59 317.16 26.51Q318.31 25.44 319.60 24.71Q320.90 23.97 322.29 23.60Q323.68 23.22 325.05 23.22Q326.73 23.27 328.34 23.66Q329.03 23.83 329.76 24.08Q330.49 24.34 331.21 24.71Q331.93 25.07 332.60 25.56Q333.28 26.05 333.84 26.71Q333.76 23.32 333.67 19.98Q333.57 16.65 333.45 13.33L342.63 13.87M330.64 43.26Q331.32 43.26 332.09 43.26Q332.86 43.26 333.69 43.21Q333.81 40.70 333.85 38.15Q333.89 35.60 333.89 33.01L333.89 30.03Q332.06 29.83 330.51 29.70Q328.96 29.57 327.20 29.57Q326.27 29.57 325.28 29.60Q324.29 29.64 323.10 29.71Q322.78 31.91 322.63 34.08Q322.49 36.25 322.49 38.48Q322.49 39.58 322.50 40.65Q322.51 41.72 322.63 42.82Q323.85 42.94 324.89 43.02Q325.93 43.09 326.89 43.15Q327.86 43.21 328.77 43.24Q329.69 43.26 330.64 43.26ZM365.23 37.48Q365.28 36.87 365.33 36.27Q365.38 35.67 365.38 35.06Q365.38 32.96 364.94 30.91Q362.67 31.01 360.44 31.23Q358.20 31.45 355.93 31.81L355.93 36.67Q355.93 39.87 355.93 43.01Q355.93 46.14 355.98 49.32L347.29 49.93Q347.36 49.02 347.38 48.14Q347.39 47.27 347.39 46.36Q347.39 40.70 347.18 35.16Q346.97 29.61 346.58 24.02L355.98 23.22Q355.98 23.90 355.96 24.57Q355.93 25.24 355.93 25.93Q357.35 24.90 358.78 24.37Q360.21 23.83 361.38 23.56Q362.72 23.27 363.99 23.22Q366.87 23.36 369.14 24.54Q370.09 25.02 371.02 25.79Q371.95 26.56 372.68 27.67Q373.41 28.78 373.85 30.29Q374.29 31.79 374.29 33.76Q374.29 34.45 374.22 35.19Q374.15 35.94 374.02 36.77L365.23 37.48ZM395.02 44.12Q395.17 42.04 395.23 40.09Q395.29 38.13 395.29 36.23Q395.29 34.25 395.23 32.34Q395.17 30.42 395.02 28.37Q394.19 28.25 393.37 28.21Q392.55 28.17 391.72 28.17Q388.31 28.17 385.13 28.93Q385.06 30.25 385.00 31.54Q384.94 32.84 384.94 34.13Q384.94 36.72 385.14 39.29Q385.35 41.87 385.77 44.68Q386.33 44.73 386.90 44.73Q387.48 44.73 388.09 44.73Q389.77 44.73 391.52 44.58Q393.26 44.43 395.02 44.12M404.08 36.43Q404.08 39.33 402.94 41.88Q401.81 44.43 399.85 46.34Q397.90 48.24 395.28 49.35Q392.65 50.46 389.67 50.46Q386.72 50.46 384.24 49.35Q381.76 48.24 379.97 46.34Q378.17 44.43 377.17 41.88Q376.17 39.33 376.17 36.43Q376.17 32.84 377.17 30.20Q378.17 27.56 379.97 25.83Q381.76 24.10 384.24 23.25Q386.72 22.41 389.67 22.41Q392.65 22.41 395.28 23.36Q397.90 24.32 399.85 26.12Q401.81 27.93 402.94 30.53Q404.08 33.13 404.08 36.43ZM436.43 36.96Q436.43 39.01 435.94 40.73Q435.45 42.46 434.59 43.87Q433.74 45.29 432.60 46.36Q431.47 47.44 430.16 48.17Q428.86 48.90 427.47 49.28Q426.07 49.66 424.73 49.66Q423.12 49.61 421.58 49.27Q420.92 49.12 420.20 48.89Q419.48 48.66 418.77 48.32Q418.07 47.97 417.40 47.52Q416.72 47.07 416.16 46.46Q416.21 47.22 416.26 47.96Q416.31 48.71 416.38 49.41L408.18 49.41Q408.18 40.63 407.93 31.62Q407.69 22.61 407.13 13.87L416.38 13.33Q416.19 16.82 416.06 20.36Q415.94 23.90 415.87 27.47Q416.43 26.81 417.09 26.29Q417.75 25.78 418.47 25.39Q419.19 25 419.91 24.74Q420.63 24.49 421.29 24.32Q422.85 23.93 424.46 23.88Q427.27 23.88 429.49 24.78Q431.71 25.68 433.25 27.37Q434.79 29.05 435.61 31.48Q436.43 33.91 436.43 36.96M415.87 33.01Q415.87 35.52 415.91 38.00Q415.94 40.48 416.02 42.92Q416.94 43.04 417.76 43.12Q418.58 43.19 419.37 43.23Q420.17 43.26 420.95 43.29Q421.73 43.31 422.58 43.31Q424.34 43.31 426.68 43.16Q426.98 40.97 427.15 38.81Q427.32 36.65 427.32 34.42Q427.32 33.33 427.28 32.26Q427.25 31.20 427.12 30.08Q425.81 29.96 424.68 29.88Q423.56 29.81 422.53 29.81Q420.80 29.81 419.23 30.02Q417.65 30.22 415.87 30.66L415.87 33.01ZM467.07 37.72L447.97 39.26Q448.10 40.77 448.32 42.26Q448.54 43.75 448.88 45.26Q451.03 45.41 453.03 45.41Q454.13 45.41 455.15 45.37Q456.18 45.34 457.28 45.26Q457.32 44.78 457.35 44.29Q457.37 43.80 457.37 43.31Q457.37 42.87 457.36 42.44Q457.35 42.02 457.28 41.58L466.48 41.77Q465.80 44.09 464.51 45.75Q463.23 47.41 461.49 48.47Q459.74 49.54 457.59 50.02Q455.44 50.51 453.08 50.51Q450.17 50.51 447.62 49.73Q445.07 48.95 443.18 47.20Q441.28 45.46 440.20 42.65Q439.11 39.84 439.11 35.77Q439.11 32.47 440.26 30.10Q441.41 27.73 443.32 26.20Q445.24 24.66 447.77 23.94Q450.29 23.22 453.08 23.22Q455.98 23.22 458.53 24.00Q461.08 24.78 462.98 26.44Q464.87 28.10 465.97 30.69Q467.07 33.28 467.07 36.87L467.07 37.72M447.73 34.13L457.52 34.13Q457.52 31.10 456.91 28.37Q454.81 27.93 452.51 27.93Q450.27 27.93 447.97 28.37Q447.83 29.74 447.78 31.14Q447.73 32.54 447.73 34.13Z" style="fill: rgb(244, 67, 229);"/>
      </g>
    </g>
  </g>
</svg>