<?xml version="1.0" standalone="no"?>
<!DOCTYPE svg PUBLIC "-//W3C//DTD SVG 20010904//EN"
 "http://www.w3.org/TR/2001/REC-SVG-20010904/DTD/svg10.dtd">
<svg version="1.0" xmlns="http://www.w3.org/2000/svg"
 width="600.000000pt" height="375.000000pt" viewBox="0 0 600.000000 375.000000"
 preserveAspectRatio="xMidYMid meet">
<g transform="translate(0.000000,375.000000) scale(0.100000,-0.100000)"
fill="#000000" stroke="none">
<path d="M2723 3740 c-122 -18 -264 -119 -338 -240 -47 -77 -82 -189 -96 -304
-11 -86 -10 -99 4 -113 30 -30 44 -10 51 76 15 166 72 308 159 396 164 163
388 178 561 38 135 -110 208 -325 203 -598 -3 -123 -5 -134 -35 -199 -26 -57
-56 -93 -167 -206 -146 -149 -167 -182 -207 -326 -16 -58 -22 -109 -22 -194
-1 -110 0 -117 29 -169 55 -101 138 -151 515 -319 124 -55 446 -197 715 -317
1753 -777 1648 -728 1740 -803 136 -110 141 -244 10 -311 l-49 -26 -576 -7
c-316 -3 -1016 -11 -1555 -17 -539 -6 -1117 -13 -1285 -16 -878 -15 -2197 -24
-2231 -15 -78 21 -112 107 -73 183 42 81 100 132 254 224 47 28 243 144 435
258 1593 946 1660 987 1660 1010 0 11 -8 21 -18 23 -9 2 -88 -39 -175 -91
-147 -88 -729 -434 -1137 -677 -99 -59 -326 -193 -505 -299 -384 -228 -445
-268 -498 -326 -61 -65 -85 -119 -86 -190 -1 -71 22 -119 72 -148 35 -21 145
-40 150 -26 5 13 72 11 72 -1 0 -6 10 -8 23 -6 12 3 373 7 802 11 429 3 1160
10 1625 15 465 5 1266 14 1780 20 1401 16 1299 10 1382 73 62 48 82 88 82 167
0 82 -28 135 -108 207 -88 78 -142 103 -1181 563 -1014 448 -1546 685 -1609
718 -91 48 -170 121 -192 178 -33 85 -6 278 57 413 24 52 52 87 143 175 179
176 216 246 224 425 8 177 -31 379 -99 514 -67 131 -232 252 -345 252 -29 0
-50 3 -47 8 6 10 -5 9 -28 -3 -13 -7 -19 -7 -19 0 0 5 -3 9 -7 9 -5 -1 -31 -5
-60 -9z"/>
</g>
</svg>
